<?xml version="1.0" standalone="no"?>
<!DOCTYPE svg PUBLIC "-//W3C//DTD SVG 20010904//EN"
 "http://www.w3.org/TR/2001/REC-SVG-20010904/DTD/svg10.dtd">
<svg version="1.0" xmlns="http://www.w3.org/2000/svg"
 width="1920.000000pt" height="1280.000000pt" viewBox="0 0 1920.000000 1280.000000"
 preserveAspectRatio="xMidYMid meet">

<g transform="translate(0.000000,1280.000000) scale(0.100000,-0.100000)"
fill="#000000" stroke="none">
<path d="M1916 12738 c102 -181 187 -447 203 -638 5 -63 9 -75 25 -78 18 -4
19 1 13 104 -11 213 -63 381 -183 594 -37 65 -50 80 -69 80 l-24 0 35 -62z"/>
<path d="M16646 12621 c-70 -99 -156 -213 -192 -255 -57 -68 -81 -108 -54 -91
38 24 420 496 420 519 0 3 -10 6 -23 6 -18 0 -49 -36 -151 -179z"/>
<path d="M1569 11161 c-137 -53 -300 -193 -352 -301 -29 -59 -55 -165 -44
-176 6 -7 122 58 187 105 19 13 63 52 97 85 69 66 92 69 47 5 -40 -58 -112
-119 -230 -195 l-102 -66 11 -33 c24 -80 98 -112 216 -95 133 19 201 49 284
129 111 106 197 250 197 333 0 86 -52 178 -121 213 -38 20 -134 18 -190 -4z
m280 -188 c41 -90 -100 -307 -249 -383 -106 -54 -190 -24 -190 68 0 44 36 90
101 130 34 20 110 81 170 134 100 89 111 97 133 87 13 -6 29 -22 35 -36z"/>
<path d="M1266 9984 c-11 -8 -16 -14 -10 -14 13 0 39 18 34 24 -3 2 -14 -2
-24 -10z"/>
<path d="M1215 9960 c-3 -6 1 -7 9 -4 18 7 21 14 7 14 -6 0 -13 -4 -16 -10z"/>
<path d="M1867 8119 c-180 -73 -512 -114 -733 -90 -56 6 -163 26 -239 46 -75
19 -139 35 -141 35 -2 0 -4 -13 -4 -28 0 -28 1 -29 113 -50 373 -71 667 -70
896 4 91 29 184 74 189 92 5 17 -25 14 -81 -9z"/>
<path d="M617 7873 c-14 -17 -8 -23 91 -94 59 -42 190 -146 292 -230 102 -85
223 -181 270 -215 185 -132 218 -135 51 -6 -57 45 -176 146 -265 225 -219 195
-394 337 -416 337 -4 0 -14 -8 -23 -17z"/>
<path d="M18900 5576 c0 -59 3 -75 16 -80 9 -4 19 -4 21 -2 3 2 2 39 -2 80 -5
55 -11 76 -21 76 -11 0 -14 -18 -14 -74z"/>
<path d="M18916 5383 c42 -177 119 -351 229 -523 l55 -85 0 37 c0 26 -11 55
-36 93 -62 98 -165 343 -188 451 -4 20 -16 35 -32 43 -34 15 -35 15 -28 -16z"/>
<path d="M18340 4791 c0 -22 213 -134 479 -250 90 -40 209 -95 265 -124 55
-28 104 -53 109 -55 4 -2 7 10 7 26 0 27 -7 32 -97 75 -54 25 -197 86 -318
135 -121 49 -271 115 -333 146 -61 31 -112 52 -112 47z"/>
<path d="M670 4543 l0 -30 168 -6 c173 -6 973 0 981 8 2 3 -4 5 -15 5 -10 0
-57 5 -104 10 -47 5 -177 10 -290 10 -193 1 -438 11 -647 26 l-93 7 0 -30z"/>
<path d="M631 4354 c-6 -15 -10 -28 -9 -29 2 -2 81 -39 175 -83 95 -44 219
-110 275 -148 182 -120 413 -365 505 -535 25 -44 44 -69 56 -69 9 0 17 2 17 6
0 12 -83 170 -115 218 -51 77 -154 194 -216 247 -84 70 -233 175 -349 243
-106 63 -313 176 -322 176 -3 0 -10 -12 -17 -26z"/>
<path d="M16542 2824 c-88 -44 -193 -176 -249 -315 -20 -49 -25 -79 -25 -150
-1 -198 55 -299 166 -299 33 0 36 3 46 43 51 197 76 262 132 350 43 67 59 46
19 -24 -51 -92 -123 -349 -97 -349 27 0 117 63 164 115 119 130 191 376 151
520 -32 116 -185 170 -307 109z m96 -26 c20 -17 14 -40 -42 -164 -29 -65 -57
-139 -61 -164 -10 -66 -38 -122 -74 -153 -43 -36 -84 -36 -122 2 -26 27 -29
36 -29 95 0 82 25 157 81 242 82 127 189 188 247 142z"/>
<path d="M1170 2705 c14 -8 30 -14 35 -14 6 0 -1 6 -15 14 -14 8 -29 14 -35
14 -5 0 1 -6 15 -14z"/>
<path d="M1171 2182 c-38 -19 -67 -54 -76 -92 -5 -23 3 -31 99 -93 104 -68
192 -144 234 -204 34 -48 9 -49 -35 -2 -62 67 -263 209 -296 209 -20 0 1 -103
36 -173 57 -116 181 -228 325 -295 81 -38 181 -38 238 -1 86 57 120 177 80
284 -46 123 -187 284 -290 331 -111 51 -255 67 -315 36z m347 -92 c120 -60
252 -237 252 -337 0 -46 -25 -83 -56 -83 -9 0 -60 40 -113 88 -53 49 -117 100
-143 115 -106 61 -148 121 -128 182 24 72 89 84 188 35z"/>
<path d="M15833 1945 c0 -22 2 -30 4 -17 2 12 2 30 0 40 -3 9 -5 -1 -4 -23z"/>
<path d="M15822 1865 c0 -16 2 -22 5 -12 2 9 2 23 0 30 -3 6 -5 -1 -5 -18z"/>
<path d="M18520 125 c0 -109 2 -125 16 -125 15 0 16 10 10 77 -3 42 -6 98 -6
125 0 26 -4 48 -10 48 -6 0 -10 -48 -10 -125z"/>
<path d="M17500 127 c0 -8 38 -39 85 -70 64 -43 94 -57 121 -57 l37 0 -28 22
c-43 34 -187 118 -202 118 -7 0 -13 -6 -13 -13z"/>
</g>
</svg>
